<svg xmlns="http://www.w3.org/2000/svg" viewBox="0 0 64 64" fill="none" stroke="#365743" stroke-width="3" stroke-linecap="round" stroke-linejoin="round">
<path d="M20 20c-6-12-13-7-11 4l4 10m31-14c6-12 13-7 11 4l-4 10"/><path d="M17 27c0-13 30-13 30 0v12c0 17-30 17-30 0Z"/><path d="M27 38q5-5 10 0l-5 5Z" fill="#365743"/><path d="M32 43v3m-8 0q8 7 16 0"/><circle cx="24" cy="31" r="1.5" fill="#365743"/><circle cx="40" cy="31" r="1.5" fill="#365743"/><path d="M27 13q-5-10 5-10 10 1 5 10m-5-9v8"/>
</svg>
